<?xml version="1.0" encoding="UTF-8"?>
<!-- Generator: Adobe Illustrator 16.0.0, SVG Export Plug-In . SVG Version: 6.00 Build 0)  -->
<!DOCTYPE svg PUBLIC "-//W3C//DTD SVG 1.1//EN" "http://www.w3.org/Graphics/SVG/1.1/DTD/svg11.dtd">
<svg version="1.1" id="Layer_1" xmlns="http://www.w3.org/2000/svg" xmlns:xlink="http://www.w3.org/1999/xlink" x="0px" y="0px" width="1000.946px" height="529.883px" viewBox="0 0 1000.946 529.883" enable-background="new 0 0 1000.946 529.883" xml:space="preserve">
<g>
	<g>
		<path d="M40.813,337.232c-26.316,0-40.314-16.859-40.471-48.753L0,214.998c0-0.815,0.611-1.476,1.406-1.588l22.936-2.2    c0.432-0.046,0.863,0.09,1.205,0.431c0.316,0.25,0.52,0.659,0.52,1.132l0.342,72.574c0.067,15.947,6.125,24.071,18.058,24.071    c0.931,0,1.884-0.047,2.904-0.183c13.976-1.363,21.03-10.842,20.963-28.268l-0.34-72.574c0-0.839,0.613-1.476,1.43-1.566    l23.004-2.246c0.477-0.043,0.908,0.091,1.249,0.387c0.318,0.294,0.498,0.748,0.498,1.178l0.341,73.436    c0.09,19.715-5.876,53.336-46.983,57.33C45.19,337.117,42.944,337.232,40.813,337.232"/>
		<path d="M119.124,326.75c-0.363,0-0.771-0.159-1.065-0.454c-0.295-0.248-0.477-0.68-0.477-1.135l-0.591-121.166    c0-0.861,0.636-1.542,1.452-1.587l24.457-1.679c0.522-0.045,1.043,0.18,1.338,0.59l51.814,68.398l-0.315-71.212    c-0.022-0.839,0.611-1.52,1.452-1.565l19.781-1.407c0.432,0,0.863,0.138,1.182,0.456c0.34,0.294,0.498,0.68,0.498,1.133    l0.567,121.168c0.022,0.861-0.634,1.544-1.451,1.589l-20.303,1.405c-0.521,0-1.067-0.18-1.362-0.566l-55.967-74.161l0.365,77.244    c0,0.84-0.636,1.499-1.453,1.544l-19.806,1.405H119.124L119.124,326.75z"/>
		<path d="M248.234,318.402c-0.387,0-0.794-0.159-1.068-0.433c-0.317-0.293-0.521-0.702-0.521-1.111l-0.681-120.827    c0-0.839,0.635-1.565,1.476-1.587l26.316-1.293c0.453-0.022,0.862,0.137,1.179,0.432c0.319,0.249,0.499,0.68,0.499,1.111    l0.59,120.827c0,0.837-0.68,1.521-1.521,1.59l-26.179,1.294h-0.089L248.234,318.402L248.234,318.402z"/>
		<path d="M345.24,314.318c-0.635,0-1.204-0.387-1.454-0.955l-51.519-119.306c-0.183-0.477-0.135-1.066,0.158-1.497    c0.271-0.432,0.725-0.705,1.27-0.705l30.083-0.907c0.748,0.022,1.248,0.385,1.497,0.951l33.507,77.882l34.643-79.968    c0.228-0.545,0.771-0.931,1.361-0.954l23.751-0.68c0.613,0,1.043,0.227,1.34,0.68c0.34,0.477,0.362,0.999,0.136,1.497    l-52.791,122.394c-0.229,0.566-0.796,0.908-1.408,0.929l-20.554,0.636L345.24,314.318L345.24,314.318z"/>
		<path d="M438.435,312.029c-0.862,0-1.587-0.683-1.587-1.546l-0.704-120.827c0-0.408,0.159-0.816,0.454-1.133    c0.316-0.295,0.704-0.455,1.112-0.455l96.848-0.068c0.861,0,1.566,0.681,1.566,1.543l0.11,23.525c0,0.41-0.157,0.841-0.452,1.112    c-0.32,0.294-0.705,0.453-1.135,0.453l-67.445,0.067l0.088,20.917l45.328-0.067c0.863,0,1.563,0.748,1.563,1.589l0.116,23.684    c0,0.455-0.158,0.862-0.454,1.158c-0.297,0.293-0.704,0.431-1.111,0.431l-45.304,0.067l0.067,22.663l68.286-0.09    c0.861,0,1.565,0.747,1.565,1.611l0.112,23.661c0,0.454-0.157,0.862-0.454,1.11c-0.293,0.317-0.705,0.477-1.112,0.477    l-97.437,0.114h-0.022V312.029z"/>
		<path d="M595.105,241.223l21.484,0.658c0.979,0.023,1.907,0.023,2.795,0.023c7.914,0,12.544-1.112,15.038-3.652    c2.017-2.021,2.902-5.174,2.902-10.255c-0.064-5.74-1.132-10.958-14.224-11.32l-28.084-0.863L595.105,241.223z M671.741,315.703    h-0.067l-31.308-0.953c-0.546,0-1.022-0.295-1.291-0.796l-26.521-45.597l-17.15-0.523l0.201,43.94    c0,0.434-0.157,0.842-0.499,1.137c-0.25,0.293-0.678,0.43-1.135,0.477l-26.404-0.816c-0.862-0.022-1.544-0.703-1.544-1.591    l-0.566-121.164c0-0.432,0.181-0.84,0.497-1.134c0.25-0.272,0.68-0.476,1.134-0.454l66.495,1.997    c22.051,0.681,34.756,14.722,34.87,38.589c0.109,22.982-12.208,32.556-23.347,36.548l27.974,47.979    c0.293,0.501,0.293,1.114,0,1.591C672.831,315.404,672.33,315.703,671.741,315.703"/>
		<path d="M740.55,322.759c-1.658,0-3.336-0.047-5.084-0.159c-18.739-0.974-38.293-12.707-43.807-16.291    c-0.477-0.247-0.749-0.746-0.749-1.292l-0.137-27.948c0-0.544,0.318-1.11,0.861-1.384c0.477-0.25,1.135-0.228,1.589,0.09    c16.947,11.32,33.146,18.625,42.289,19.148c8.666,0.453,14.405-0.839,17.287-3.723c1.405-1.405,2.063-3.197,2.063-5.511    c0-2.724-2.788-5.377-8.778-8.351c-3.54-1.813-7.735-3.538-12.208-5.377c-18.873-7.757-44.759-18.351-44.871-46.959    c-0.045-9.529,2.949-17.446,8.938-23.481c7.713-7.735,20.103-11.684,33.984-10.935c16.334,0.906,35.798,9.256,44.918,14.678    c0.475,0.273,0.75,0.816,0.75,1.361l0.158,27.064c0,0.59-0.319,1.134-0.841,1.385c-0.521,0.296-1.11,0.272-1.609-0.045    c-5.625-3.696-25.297-15.742-43.398-16.719c-6.42-0.341-9.619,1.36-11.004,2.767c-1.361,1.338-1.542,2.723-1.542,3.448    c0,2.927,2.902,5.899,8.847,9.097c3.563,1.906,8.12,3.835,12.953,5.854c18.605,7.849,44.08,18.558,44.193,44.283    c0.067,11.48-3.244,20.621-9.892,27.271C767.749,318.81,756,322.759,740.55,322.759"/>
		<path d="M837.466,273.958l21.912,1.589l-10.775-29.65L837.466,273.958z M905.841,330.427c-0.021,0-0.045,0-0.112-0.022    l-26.067-1.906c-0.635-0.065-1.158-0.433-1.36-1.043l-8.782-24.39l-42.401-3.132l-8.981,22.938    c-0.25,0.636-0.841,1.043-1.565,0.998l-21.846-1.608c-0.477-0.047-1-0.32-1.25-0.705c-0.247-0.454-0.292-0.978-0.11-1.43    l46.822-118.741c0.275-0.659,0.887-1.044,1.591-1.021l18.261,1.361c0.589,0.021,1.157,0.432,1.36,1.044l45.896,125.545    c0.246,0.477,0.137,1.045-0.184,1.454C906.816,330.2,906.317,330.427,905.841,330.427"/>
		<path d="M999.398,339.067h-0.156l-75.139-6.916c-0.814-0.092-1.405-0.77-1.405-1.591l-0.728-122.594    c0-0.476,0.157-0.884,0.501-1.204c0.363-0.294,0.748-0.43,1.223-0.408l22.71,2.111c0.817,0.068,1.433,0.749,1.433,1.565    l0.45,97.122l51.136,4.719c0.795,0.065,1.407,0.748,1.43,1.587l0.092,24.024c0.021,0.479-0.156,0.863-0.479,1.18    C1000.173,338.936,999.785,339.067,999.398,339.067"/>
	</g>
	<path d="M554.566,16.787c-12.75-3.109-26.75-0.749-26.363-0.203c-1.36-0.455-3.969-1.384-5.441-1.067   c-0.206,0.023-0.32,0.068-0.479,0.138c0.272,0.135,0.588,0.271,0.884,0.384c-0.884,0.341-1.269-0.114-2.019-0.273   c0.475,0.657,0.385,0.545-0.024,1.226c0.024,0.09,0.069,0.18,0.139,0.294c2.04,0.477,4.036,1.272,6.918,0.954v-0.159   c-0.612-0.612-2.021-0.725-2.745-1.293h-0.275v-0.135c1.887,0.34,3.475,1.179,4.767,2.041c0.183-0.159,0.362-0.271,0.591-0.384   c-0.5,0.771-1.021,0.976-0.75,1.769c-3.084-0.477-5.353-1.588-6.556,1.815c0.34,0.295,0.68,0.568,1.021,0.862   c-0.249,0.09-0.497,0.159-0.748,0.25c-0.047,0.273-0.114,0.545-0.159,0.84c1.225,1.133,1.929,1.725,3.473,2.313   c0.065,0.567,0.157,1.204,0.249,1.816c0.362,0.318,0.362,0.25,0.884,0.159c0.657,0.635,0.203,1.112,0.546,1.521   c0.837,1.087,4.036,2.676,4.741,3.651c0.248,0.294,0.045,0.93,0.587,1.271c1.134,0.772,2.474,1.225,3.472,2.11   c0.365,0.204,0.09,0.022,0,0.385c2.271,1.066,5.764,0.977,7.668,2.132c0.386,0.385,0.182,0.137,0.159,0.68   c1.974,0.545,3.947,1.088,5.943,1.633c0.113-0.023,0.295-0.068,0.405-0.114c0.139-0.521,0.094-0.544-0.11-1.021   c1.18-0.658,1.475-1.95,2.336-2.857c-0.409-0.75-0.568-0.817-0.432-1.862c1.634-0.227,2.131-1.112,3.497-1.43   c-0.161-0.794-0.069-0.977-0.729-1.294c0.388-0.294,0.296-0.158,0.887,0.021c0.158-0.135,0.272-0.294,0.43-0.432   c-0.43-0.361-0.885-0.77-1.316-1.155h-0.272v-0.159c0.773,0.227,1.589,0.363,2.452,0.227c0.112-0.046,0.226-0.067,0.317-0.158   c-0.203-0.204-0.385-0.454-0.589-0.704c0.067-0.068,0.11-0.09,0.11-0.135c1.137,0.611,1.816,0.656,3.497,0.68   c0.112-0.387,0.226-0.727,0.293-1.112c0.251-0.022,0.479-0.067,0.748-0.092c-0.271,0.34-0.497,0.703-0.748,1.066   c0.047,0.113,0.114,0.204,0.137,0.296c3.405,0.771,5.739-0.545,8.985-1.09v-0.839c3.878-1.112,9.416,1.247,13.202,0.952   C585.263,30.239,570.287,20.645,554.566,16.787"/>
	<path d="M382.853,336.302c1.724,2.857,3.313,6.782,5.537,9.096c4.696,4.811,12.386,7.42,15.335,13.589   c1.429,1.409,2.813,2.792,4.22,4.155c-0.067,0.678-0.158,1.313-0.25,1.948c0.25,1.929,1.132,4.65,0.816,6.737   c-0.113,0.929-0.455,2.11-0.385,3.153c0.159,0.613,0.318,1.269,0.455,1.927c-0.34,1.951-1.158,3.994-1.202,6.398   c-0.589,0.251-0.227,0.11-1.021,0c-0.024,0.703-0.068,1.406-0.114,2.088h0.702c-0.156,1.293-0.34,2.607-0.498,3.88   c0.157,1.293,0.318,2.607,0.452,3.88c-0.18,0.521-0.998,0.726-1.132,1.495c0.112,0.477,0.226,1.021,0.316,1.452   c-0.249,2.655-0.748,4.945-1.497,6.443c-0.792,1.632,0.022,3.198-1.405,4.151c0.273,2.041,0.929,3.132,0.793,5.354   c-0.567,0.183-0.318,0.136-1.022,0.136c-0.316,4.878,2.11,7.532,0.59,11.118c0.227,0.112,0.793,1.518,0.567,2.086   c-1.158,3.197-2.631,6.261-2.904,10.028c-0.138-0.09-0.273-0.203-0.432-0.295c0,0.635,0.023,1.293,0.023,1.929   c-0.432-0.157-0.864-0.316-1.294-0.452c-0.044,0.021-0.09,0.092-0.136,0.136c0.274,2.675,1.565,5.559,2.654,7.805   c-0.112,3.086-1.928,4.037,0.385,7.485v0.612c-0.25-0.156-0.498-0.295-0.725-0.477c-0.477,1.43,0.295,2.932-0.112,4.559   c0.498,0.613,1.067,0.751,1.904,1.045c0.113-0.065,0.274-0.112,0.409-0.157c0.341-1.542,0.158-3.381-0.613-4.558   c0.092-0.09,0.205-0.157,0.294-0.275c0.319,0.159,0.682,0.275,0.999,0.432h0.137c-0.067-0.635,0.272-0.521-0.274-0.568   c0.091-0.181,0.182-0.385,0.274-0.612c0.226,0.317,0.499,0.593,0.748,0.908c-0.158,0.183-0.295,0.387-0.477,0.589   c0.725,0.477,1.089,2.111,0.204,2.472c0.25,0.229,0.478,0.41,0.726,0.591c-0.409,2.497,0.044,4.22,0.044,6.874h-0.271   c-0.206-0.794-0.794-2.994-0.455-3.2c-0.566-0.749-1.112-1.246-2.063-1.633c-0.432,0.658-0.704,1.655-0.818,2.653   c0.386,0.363,0.748,0.772,1.158,1.18c-0.043,0.68-0.09,1.34-0.135,2.043h-0.999v0.134c0.158,0.249,0.295,0.57,0.431,0.861   c-0.387,0.296-0.772,0.617-1.132,0.887c0,0.205,0,0.362,0,0.588c0.316,0.206,0.678,0.386,0.997,0.568   c0.203-0.183,0.384-0.362,0.59-0.588c0.657,0.588,1.973,0.794,2.587,1.475c-0.182-0.067-0.364-0.092-0.566-0.137   c0.203,0.454,0.158,0.25,0.43,0.568c-0.136,0.499-0.272,0.951-0.407,1.452c-0.522-0.296-0.591-0.501-1.452-0.591v0.181   c0.135,0.139,0.273,0.296,0.453,0.41c-0.272,0.158-0.498,0.319-0.726,0.454c0.771,1.407,0.953,3.562,1.905,4.811   c0.682,0.315,1.339,0.68,2.021,1.043c-0.386-0.159-0.771-0.247-1.158-0.318v0.137c0.159,0.566,0.272,1.18,0.433,1.747   c0.25,0.092,0.498,0.204,0.725,0.294c0.205-0.432,0.384-0.861,0.588-1.316c0.137,0.363,0.273,0.681,0.433,1.022h-0.591   c-0.045,0.043-0.091,0.092-0.134,0.157c0.566,0.841,0.679,1.248,0.747,2.45c0.568-0.18,1.137-0.364,1.725-0.566   c0.364,0.34,0.272,0.387,0.862,0.566l-0.295,0.591c-0.477-0.159-0.953-0.296-1.43-0.432c-0.067,0.091-0.091,0.183-0.134,0.272   c0.499,0.931,1.27,1.499,2.176,2.043c-0.09-0.186-0.181-0.411-0.294-0.591c0.839,0.68,1.61,1.36,2.451,2.041v0.136   c-0.772-0.317-1.522-0.655-2.314-0.997c0.999,1.226,1.792,1.633,2.904,1.884c-0.045,0.362,0.045,0.044-0.137,0.409   c1.112,1.134,5.786,4.218,7.078,3.898c-0.046,0.59,0.044,0.16-0.135,0.616c1.36,1.292,5.785,2.947,7.94,3.469v-0.137   c-0.341-0.362-0.704-0.678-1.021-0.998c1.567,0.499,2.564,0.067,3.608,0.998v-0.588c0.658,0.091,1.338,0.203,2.02,0.272h0.136   c0.044-0.067,0.092-0.182,0.136-0.272v-0.41c-3.948-0.499-5.218-3.924-8.396-4.808c0.159-0.184,0.319-0.388,0.457-0.566   c-0.907-0.978-2.087-0.908-2.882-1.884c-0.112-0.069-0.204-0.114-0.294-0.139c0.135-0.112,0.294-0.182,0.432-0.273   c0.725,0.273,1.452,0.568,2.132,0.819v-0.116c-1.133-1.473-2.995-2.493-3.2-4.943c0.067-0.092,0.112-0.181,0.182-0.295   c0.657-0.159,1.338-0.249,1.997-0.454c0.545-0.407,0.363-1.247,0.249-2.314c0.93-0.61,2.883-1.02,3.609-1.859   c0.227-0.34,0.227-1.271,0.113-2.203c-2.359-1.561-5.83-2.039-5.061-5.531c1.092-0.862,2.589-1.159,4.018-0.568h0.611   c-0.204-0.568,0-0.343-0.453-0.613c0.271-0.613,0.406-0.523,0.998-0.703c0.114-0.908-0.181-1.704-0.431-2.498   c0.59-0.885,1.111-1.271,2.587-1.337c-0.364-0.68-1.225-0.818-1.746-1.295c-0.094-0.045-0.206-0.114-0.296-0.157   c0.34-0.138,0.657-0.319,0.998-0.454c0.75,0.521,0.999,0.84,1.453,1.611c0.362,0.065,0.771,0.112,1.179,0.137   c0.112-0.137,0.272-0.251,0.407-0.432c0-0.885-0.067-1.296-0.431-1.746c-0.114-0.114-0.205-0.274-0.294-0.434   c-0.546,0.047-1.068,0.094-1.589,0.159c0.25,0.181,0.476,0.385,0.703,0.568v0.136c-0.317-0.067-0.659-0.183-0.999-0.274   c-0.432-0.362-0.454-0.748-1.429-1.021c-0.5-0.884-0.523-2.564-0.908-3.696c1.089-1.318,3.563,1.405,5.081,1.79   c1.136-0.065,2.269-0.11,3.426-0.137c0.25-0.568,0.477-1.09,0.726-1.653c-0.181,0.111-0.387,0.203-0.567,0.295   c-0.205-0.184-0.41-0.366-0.59-0.57c0.681-0.998,1.677-2.109,1.111-3.516c0.206,0.09,0.41,0.182,0.592,0.318h0.136   c-0.091-0.318-0.184-0.613-0.296-0.886c2.087,0.839,11.32,2.156,13.861,0.704c0.568-0.293,2.769-2.994,3.584-3.629   c0-0.681,0-1.405,0-2.065c-1.223-0.43-1.814-0.497-1.904-2.065c0.385-0.317,0.749-0.68,1.132-1.043   c-0.59-2.563-3.221-2.837-4.379-4.853c0.205-0.229,0.409-0.477,0.592-0.728c0.135-0.067,0.27-0.112,0.43-0.179   c0.385,0.631,0.794,0.814,1.021,1.651c0.907,0.184,1.814,0.364,2.745,0.615c0.818,0.544,1.816,2.267,2.904,2.473   c0.863,0.181,1.521-0.385,2.474,0c0.68,0.338,1.157,1.177,2.314,1.02c2.926-0.317,3.446-1.7,5.172-2.903   c1.021-0.431,2.019-0.885,3.04-1.316c0.725-0.976,1.497-1.949,2.269-2.927c1.929-0.839,3.855-1.676,5.761-2.496   c2.293-1.518,3.494-4.241,5.604-5.876c2.654-2.067,6.012-2.426,7.056-6.171c-0.204-0.022-0.409-0.067-0.612-0.135   c0.409-1.454,0.499-3.336,1.292-5.334c0.613-1.566,10.798-6.713,13.43-5.941c0.568,0.43,1.134,0.908,1.725,1.314   c0.09-0.318,0.229-0.658,0.296-0.974c-0.206-0.069-0.386-0.116-0.589-0.204v-0.137c1.291-0.319,2.608-2.271,3.9-1.839   c0.454-0.454,0.477-0.274,0-0.749v-0.432c2.743-0.021,7.896,1.066,10.458,2.293c0.248-0.387,0.228-0.387,0.727-0.568   c-0.136-2.289,2.607-1.409,4.31-2.201c1.112-0.84,1.202-3.54,2.884-4.357c2.72-1.36,2.587-2.222,4.491-3.492   c0.837-0.523,1.634-0.477,2.155-1.291c1.951-3.133,0.635-4.538,4.629-5.992c0.66-2.155,1.182-3.855,2.428-5.42   c0.634-0.704,1.269-1.43,1.882-2.156c0.683-1.927,0.249-3.54,0.998-5.263c0.796-1.904,2.452-3.131,2.609-5.559   c1.771-0.929,3.336-0.612,5.061-1.837c2.473-2.132,4.923-4.312,7.397-6.469c0.861-0.179,1.743-0.338,2.606-0.519   c1.112-0.86,2.223-1.724,3.336-2.609c3.992-2.585,7.257-4.854,8.823-9.892c0.022-0.976,0.092-1.951,0.137-2.949   c0.432-1.837,2.588-13.771,2.563-13.771C465.839,334.939,382.853,336.302,382.853,336.302 M482.31,23.82   c1.814,0.25,4.22,0.522,6.217,1.407c2.019,0.906,2.519,2.2,4.695,2.54c-0.476,0.341-0.75,0.136-1.452-0.021   c0.521,0.884,1.066,1.36,2.315,1.519c-0.205,0.113-0.387,0.205-0.59,0.296c0.567,0.522,0.931,0.93,1.725,1.27h0.589   c-0.181-0.59-0.066-0.431-0.544-0.727v-0.112c4.176,1.36,8.01,4.31,12.818,5.057c0.227-0.632-0.092-0.293,0.589-0.407v-0.136   c-1.407-1.882-4.741-3.901-7.03-4.853c-0.067-0.16-0.092-0.364-0.138-0.546c0.907,0.477,1.815,0.953,2.724,1.452v-0.567   c2.607,1.519,5.602,3.38,8.21,4.877c0.251-0.046,0.499-0.091,0.728-0.113h0.271c0-0.022,0.022-0.09,0.022-0.135   c-0.931-0.612-1.407-0.521-2.021-1.452c0.411,0.181,0.774,0.319,1.182,0.453c0.045,0.022,0.09,0.022,0.158,0.022   c0.021-0.521-0.089-0.612-0.454-1.111c0.045-0.09,0.112-0.203,0.157-0.271c0.342,0.226,0.253,0.134,0.432,0.521   c0.886-0.067,0.611-0.159,1.022-0.657c0.229,0.567,0.248,0.567,0.702,0.862h0.159c-0.09-0.205-0.203-0.384-0.295-0.546h1.022   c0-0.113,0-0.179,0.024-0.294c-0.864-0.521-1.589-1.112-2.746-1.452c-0.066-0.089-0.089-0.181-0.156-0.272   c0.295-0.022,0.589-0.067,0.882-0.09v-0.158c-0.792-0.681-3.356-2.723-5.193-2.45c0.045-0.84-0.409-1.951-1.407-2.225h1.156   c0.069-0.113,0.092-0.18,0.161-0.293c-0.184-0.182-0.387-0.364-0.593-0.546c1.906,0.158,3.563,1.656,5.218,1.748   c-0.59,1.884,3.131,2.428,4.426,3.448c0.974-0.137,0.906-0.453,1.609-0.544c-0.135-0.092-0.273-0.205-0.407-0.295   c0.203-0.432,0.064-0.25,0.432-0.521c0.747,0.295,1.452,0.567,2.154,0.182v0.544c0.362,0.023,0.681,0.023,1.021,0.023   c-0.132-0.181-0.291-0.385-0.43-0.567c0.454-0.227,0.045-0.091,0.566,0.022c0.184-0.045,0.319-0.09,0.456-0.114   c-0.184-0.294-0.364-0.589-0.593-0.86c1.317,0.317,1.839,0.271,2.906,0.044c-0.364-1.202-1.976-1.701-3.426-1.611   c-0.203-0.363,0.092-0.181,0.407-0.363c-0.477-0.022-0.951-0.068-1.428-0.068c-0.501-0.227-0.886-1.112-2.449-1.157   c0.293-0.295,0.044-0.159,0.59-0.273c-0.499-0.476-1.861-1.202-2.745-1.157c-0.09-0.089-0.182-0.179-0.271-0.271   c0.179-0.092,0.385-0.182,0.567-0.25c-1.522-0.317-1.906-0.748-2.906-0.226c-0.886-0.68-0.792-1.112-2.291-1.271   c0.114-0.136,0.206-0.272,0.296-0.409c-1.155-0.293-2.292-0.589-3.448-0.862v-0.159c0.272-0.066,0.566-0.113,0.886-0.137   c0.022-0.521,0.067-0.362-0.159-0.793c1.088,0.272,2.133,0.567,3.2,0.816c0.089-0.068,0.179-0.158,0.271-0.249   c-0.633-0.658-1.611-1.021-2.584-0.999c0.042-0.113,0.111-0.25,0.134-0.408c0.546,0.158,1.088,0.294,1.589,0.408   c0.069-0.021,0.114-0.066,0.159-0.09v-0.431c-1.271-0.954-1.566-0.977-3.585-0.885c0.452-0.588,0.611-0.431,1.452-0.522   c0-0.045,0-0.065,0.022-0.135c-1.499-1.089-3.676-0.568-5.195-1.431c-0.022,0-1.338-1.542-1.566-1.657   c-1.087-0.611-4.764-1.383-5.466-1.405c0.114-0.136,0.204-0.273,0.316-0.407c-1.407-0.636-2.788-1.091-4.31-1.792h1.179V9.443   c-0.704-1.067-7.237,1.655-8.485,3.289c-0.43-0.25,2.699,2.427,1.839,2.267c-0.092,0.136-0.206,0.273-0.296,0.386h-0.294   c0.407,0.704,3.447,0.545,4.174,0.567c0.046,0.114,0.091,0.181,0.159,0.295c-0.567,0.272-0.725-0.181-1.474-0.022h-0.273   c0.406,1.02,1.315,0.794,2.289,0.432c0.138,0.364,0.275,0.726,0.455,1.111c-0.657-0.271-1.021-0.271-1.883-0.294   c0.296,0.977,2.042,1.157,3.267,1.271c0.044-0.204,0.113-0.409,0.16-0.568c-0.477-0.09-0.979-0.205-1.43-0.272   c0.067-0.295,0.113-0.567,0.159-0.837c0.863,0.294,1.271,0.792,2.428,0.998c0.25,0.704,0.477,1.452,0.68,2.157   c-2.269,0.271-4.538,0.544-6.829,0.77c-0.045,0.092-0.09,0.183-0.138,0.273c0.456,0.477,0.955,0.929,1.407,1.407v0.136   c-1.587-0.477-3.312-0.091-4.787-0.317c-3.153-0.546-5.535-2.202-8.687-0.32c0.067,0.137,0.133,0.228,0.159,0.408   C477.75,24.207,480.495,23.57,482.31,23.82 M387.254,125.75c1.044,0.861,4.128-0.909,5.625-0.909   c0.658,0.885,2.042,4.354,2.858,4.514c1.179,2.722-2.133,4.106-1.792,6.193c0.091,0.068,0.182,0.09,0.274,0.135   c0.589-0.499,0.497-0.476,0.34-1.134c0.089-0.09,0.181-0.113,0.272-0.158c0.271,0.771-0.068,0.613,0.725,0.681   c-0.545,0.407-1.088,0.815-1.611,1.226c-0.25,0.588,0.138,1.996,0.274,3.266c0.226,0.135,0.477,0.228,0.725,0.318   c0.092-0.182,0.181-0.431,0.274-0.611c0.044,0.113,0.09,0.181,0.158,0.294c-0.568,0.705-0.613,1.021-1.044,1.747   c0.364,0.068,0.228,0,0.613-0.159c0.319,0.522,0.477,0.817,0.274,1.59c0.066,2.222,2.359,2.222,1.291,4.561   c0.795,1.201,3.38,0.43,4.016,0.498c0-1.792,2.291-3.653,3.063-5.423c0.998-2.223,0.047-5.308,0.047-8.076   c0.271-0.092,0.589-0.204,0.884-0.318c-0.317-2.02-0.68-4.107-0.976-6.172c0.727-7.85,7.009-9.777,13.294-11.66   c2.95-0.885,1.838-3.426,7.282-2.337c1.36-2.563,5.92-2.086,8.597-2.723c0.069-0.113,0.115-0.226,0.161-0.294   c-0.568-0.386-0.432-0.183-0.727-0.862v-0.158c0.727-0.477,2.926-0.84,3.788-0.818c0.294-0.431,0.522-0.794,0.749-1.134   c-0.455-0.747-1.497-1.112-2.631-1.157v-0.181c0.953,0.181,1.862,0.317,2.791,0.453c0,0.385,0,0.75,0,1.157   c0.091-0.068,0.408-3.04,0.499-4.56c-0.318-0.091-0.612-0.204-0.885-0.273c-0.431-0.319-0.09-0.112-0.135-0.725   c-0.044-0.59,1.021-2.064,1.496-2.699c-0.431-0.341-0.044-2.677,0.025-3.402c0.703-0.591,1.383-1.202,2.063-1.816   c-1.656,2.336-0.816,2.336-1.36,5.082c0.431,0.135,0.862,0.272,1.293,0.454c-0.84,0.703-1.702,1.043-2.202,2.131   c-0.067,0.069-0.112,0.159-0.135,0.25c0.272,0.227,0.16,0.204,0.727,0.295c0.817-1.748,4.219-2.927,5.74-5.378   c-0.931-0.952-0.544-1.519-0.841-2.813c0.658,0.611,0.931,1.132,2.021,1.407c-0.183,0.249-0.41,0.476-0.59,0.725v0.114   c2.245,0.317,5.287-2.609,6.331-4.174c-0.182-0.566,0-0.272-0.433-0.591c-0.044-0.113-0.089-0.18-0.133-0.294   c2.607-0.317,6.349,0.453,9.208,0.135c-0.25-0.295-0.499-0.567-0.726-0.884c-2.2,0.316-4.152-0.567-6.307-0.068   c2.586-2.042,10.458,0.817,13.931-0.498c0.384,0.93,1.201,0.863,2.903,0.93c0.181-0.294,0.386-0.567,0.588-0.862   c-0.134-0.204-0.27-0.477-0.43-0.704c-0.341,0.772-0.045,0.817-0.884,0.817c-0.386-0.023-0.795-0.114-1.18-0.159   c-0.205-0.885,0.112-2.042-1.452-2.313v-0.273c0.725-0.181,1.406-0.34,2.11-0.498c-0.205-0.318-0.409-0.568-0.589-0.862   c0.998-1.224,3.04-1.861,3.97-2.768c2.289,0.454,3.765,0.408,6.012-0.839c0.361,0.407,0.292,0.295,0.292,0.839   c2.814-0.203,5.514,0.022,8.487-0.771c-0.137-0.294-0.273-0.568-0.41-0.862c0.34-0.021,1.839,0.521,2.313,0.634   c2.224,0.454,6.534,0,8.396-0.611c0.067,0.067,0.158,0.179,0.249,0.294c-0.68,0.182-1.361,0.341-2.041,0.5   c-0.045,0.067-0.09,0.18-0.136,0.272c0.771,0.158,1.566,0.363,2.314,0.521c-2.792,0.431-5.558,0.883-8.349,1.293   c-0.044,0.089-0.09,0.182-0.136,0.273c0.318-0.09,0.659-0.159,1.021-0.25c-0.206,0.092-0.408,0.16-0.592,0.25   c-0.701,0.885-0.905,0.907-0.905,2.404c0.272,0,0.59,0,0.862,0.021c0.589,0.793,0.229,1.293,1.316,1.316   c2.02,0.092,3.926-1.224,6.194-1.36c0.272-0.611,0-0.703,0.704-0.953c0.135,0.137,0.204,0.273,0.316,0.408   c0.185-0.158,0.386-0.364,0.567-0.544c0.206,0.93,0.637,0.93,1.475,1.178c1.226-1.27,9.008,0.34,11.299-0.294   c0.09,0.022,0.182,0.022,0.295,0.022c-0.456-0.477-0.839-0.613-1.771-0.637c0.387-0.25,0.477-0.137,0.727-0.567   c1.815,0.636,3.742,0.252,6.149,0.274v-0.454c0.136-0.84-1.182-1.566-2.157-1.634v-0.158c0.385-0.453,0.792-0.93,1.18-1.384   c-0.343-0.5-0.294-0.227-0.294-0.839c-0.274-0.092-0.593-0.137-0.886-0.206c-1.452,0.748-4.741,1.498-4.854,3.54   c-1.022,0.135-1.544,0.09-1.612-1.089c-3.335,0.364-4.673-1.339-7.44-1.655c-0.204-0.251-0.408-0.499-0.589-0.727   c0.205,0,0.386,0,0.589,0.021c0.067-0.114,0.091-0.227,0.158-0.293c-0.885-0.341-1.769-0.705-2.631-1.067   c-0.453-0.295-0.929-1.655-1.293-2.337c0.227-0.159,0.476-0.341,0.726-0.522c-0.385-0.363-0.793-0.453-1.59-0.476v-0.273   c1.545-0.227,2.249-1.044,3.677-1.588c0.09-0.205,0.205-0.364,0.295-0.544v-0.159c-1.52,0.453-2.789,0.182-4.966,0.159   c-0.295-1.045-1.045-1.431-2.201-1.633c-0.046-0.09-0.091-0.182-0.158-0.295c1.995,0.206,2.698,1.044,4.4,1.249   c1.52-0.181,3.018-0.365,4.56-0.566c0-0.136,0-0.296,0-0.408c0.455-0.318,0.045-0.34-0.159-0.862   c0.229,0.067,0.409,0.136,0.588,0.158v-0.135c-3.56-4.788-16.061-3.085-21.482-2.134c-2.133,0.407-3.654,2.428-6.604,2.428   c1.271-1.202,8.938-4.083,11.345-4.833c0,0,4.81,0.364,5.104,0.295c0.431-0.477,0.884-0.952,1.315-1.407   c1.997-1.043,4.898-0.636,7.487,0.045c3.38,0.954,6.533,1.294,9.87,2.452c2.085,0.703,8.368,3.266,10.525,2.903   c1.657-0.227,3.175-0.771,4.696-1.407c3.537-1.429,10.593,2.224,13.021-0.453c0.181-0.499,0.114-0.045-0.157-0.704   c0.09,0.045,0.182,0.113,0.293,0.159c0.433-0.704-0.021-3.04,0.479-3.812c-0.842-0.318-1.681-0.657-2.473-0.953   c0.021-0.408,0-0.089,0.136-0.567c-1.496-0.113-1.61-0.476-2.608-0.431c-0.295-1.655-1.837-2.291-3.632-2.518v-0.158   c1.271,0.158,2.518,0.295,3.791,0.431c-0.683-0.976-2.294-1.089-2.473-2.063c-1.204-0.273-2.249-0.068-3.225-0.705   c-0.521-0.341-0.387-0.386-0.407-0.861c-0.61-0.432-2.199-0.296-2.766-0.794c-0.66-0.566-0.771-1.088-1.747-1.496   c-0.18-0.614-0.363-0.227,0.154-0.68c-0.109-0.295-2.674-2.156-3.764-2.358c0.411-0.408,0.229-0.25,0.729-0.296   c0.111-0.318,0.065-1.133,0.158-2.222c-0.317-0.136-0.659-0.318-1.022-0.453c-0.089-0.044,0.318-0.771,0.318-1.701   c-1.296-0.522-2.746-1.021-2.587-2.586h-0.729c-0.862-1.339-4.196-5.582-4.129-6.944c-3.562,0.953-8.12,6.648-12.977,2.768   c-0.816,0.068-1.385-1.178-2.881-1.475c-0.09-0.409-0.114-0.793-0.158-1.225c-0.318-0.068-0.659-0.113-1-0.159   c0.432-1.203,0.885-1.361,0.771-2.927c0.544-0.183,1.089-0.385,1.611-0.659c-0.134-0.203-0.25-0.453-0.407-0.658   c-0.454,0.159-0.906,0.34-1.317,0.5c-0.954-1.067-3.063-1.498-4.788-1.975c-0.022-0.113-0.089-0.203-0.112-0.273v-0.159   c0.295-0.25,0.205-0.203,0.725-0.271v-0.137c-1.111-0.999-3.449-2.746-4.854-3.199c-1.224,0.021-2.429,0.045-3.629,0.067   c-3.041-1.021-5.854-2.202-8.939-2.088c-0.295,0.273-0.588,0.545-0.885,0.816c-0.068,0.181-0.113,0.341-0.159,0.544   c0.251,0.364,0.205,0.364,0.705,0.544c-0.614,0.817-1.409,1.133-2.655,1.363c1.156,1.338,0.339,1.473,0.974,2.337   c-0.452,0.476-3.923,1.836-5.285,1.88c-0.158,0.251-0.294,0.523-0.455,0.794c1.862,0.613,3.427,1.973,3.518,4.288   c-1.541,3.334-5.058,3.901-9.232,4.605c-1.521,0.068-2.996,0.09-4.516,0.135h-0.271c0.112,0.635-0.069,1.476,0.816,1.769   c-0.794,1.498-2.382,3.268-1.316,4.969c-0.749,0.591-1.814,1.361-2.79,1.361c0,0.407,0,0.839-0.023,1.247   c-0.18,0.023-0.362,0.068-0.567,0.16c-0.043-0.544-0.317-0.477-0.566-1.157c-1.18,0.159-1.839,0.658-2.61,1.157   c-0.522-0.272-0.977-0.477-1.452-0.705c-0.477-2.289-1.951-3.652-2.927-5.762c0.747-0.704,1.383-1.225,1.952-2.086   c-0.024-0.364-0.091-0.726-0.138-1.091c0.839-0.86,1.747-1.224,2.381-2.358c-2.973-0.227-11.614-2.881-13.338-4.56   c-0.614-0.545-0.75-1.861-1.658-2.542c-1.338-0.612-2.675-1.224-3.994-1.859c-1.496,0.021-2.993,0.067-4.49,0.089h-0.293   c1.065-1.088,1.723-2.678,2.585-3.947c-0.749-0.386-1.792-0.432-3.017-0.386c0-0.203,0-0.407,0.021-0.657   c2.836-3.292,11.957-6.646,15.835-6.422c-0.18-0.18-0.407-0.408-0.567-0.635c1.409,0.113,2.949,0.295,4.469,0.093   c0.522-0.727,0.453-0.727-0.091-1.362h-0.293v-0.086c2.246,0.679,9.867,0.566,13.339-1.204c0.478-0.318,0.16-0.135,0-0.522   c1.521-0.34,3.04-0.657,4.538-0.997h0.272c0-0.023,0.022-0.068,0.022-0.137c-0.294-0.226-0.453-0.294-1.022-0.364   c-0.021-0.066-0.09-0.18-0.112-0.271c0.999,0.089,2.02,0.158,3.016,0.249c0,0.748,2.134,2.109,3.11,2.404   c0.315-0.317,0.067-0.044,0.179-0.385c0.046-0.067,0.089-0.113,0.136-0.136c-0.386,0.022-0.18-0.021-0.611,0.136   c-0.227-0.566-0.318-0.613-0.953-1.066v-0.137c0.477,0.205,0.953,0.432,1.429,0.658c-0.044-0.385-0.089-0.816-0.112-1.201   c0.567,0.385,1.132,0.793,1.699,1.179v-0.386c2.475-0.612,4.789-0.544,6.669-1.066c-0.338-0.432-0.748-0.817-1.111-1.225   c0.114-0.091-13.497-7.577-29.355-7.351c-10.211,0.204-47.007,12.793-76.045,27.45c-22.188,11.251-39.27,25.25-40.291,26.248   c-8.871,7.714-17.377,17.15-21.846,28.698c-0.545,0.566-1.022,1.157-1.542,1.769c-0.386,0.75-2.927,7.397-2.95,7.69   c0.431,0.023,0.838,0.068,1.247,0.114c-0.271,1.952,0.908,1.972,0.407,4.424c-0.792,3.447-3.242,7.668-4.354,11.479   c-0.205,0.794-1.021,2.722-0.794,3.744c0.25,1.294,0.748,3.04,0.25,4.72c-0.567,0.93-1.09,1.884-1.633,2.835   c-0.681,0-0.933,0.183-1.657-0.044c-0.046,0-0.09,0.044-0.135,0.044c-0.204,1.951,0.522,3.108,0.409,4.81   c0.408-0.021,0.273,0,0.659-0.226c1.179,2.994,0.612,6.328-1.635,8.484c0.658,2.835,2.157,4.425,1.611,8.803v0.136   c0.114,0.045,0.204,0.068,0.294,0.088c2.587-2.698,1.929-2.357,2.177-5.806c-0.067-0.317-0.18-0.657-0.271-0.952   c-0.252,0.25-0.456,0.521-0.658,0.794c-0.068,0.044-0.113,0.067-0.161,0.067c-0.362-2.268,1.906-7.828,2.36-10.186   c0.296-1.521-0.545-4.197-0.135-6.013c0.975-4.287,1.451-13.566,5.013-16.267c0.159,0.319,0.363,0.635,0.544,0.93   c0.182-0.089,0.34-0.205,0.544-0.363c0.75,2.542-2.359,6.285-1.974,9.619c-0.794,0.589-1.158,0.976-1.633,1.838   c0.114,0.09,0.251,0.227,0.41,0.363c0.25-0.273,0.543-0.589,0.815-0.839c-0.022,0.839-0.453,3.562,0.364,4.401   c0.25,0.34,0,0.159,0.453,0.068c0.09,0.089,0.182,0.158,0.25,0.271c-0.454,0.952-0.839,1.474-0.817,2.972   c0.273,0.25,0.158,0.25,0.681,0.319c-0.136,0.612-0.275,1.202-0.408,1.791c0.226-0.045,0.452-0.067,0.679-0.09   c0,1.928-0.749,2.517-1.656,3.834c0.25,1.746,1.021,2.2,1.771,3.493c-0.545,0.591-0.521,0.954-0.681,1.838   c1.384,1.861,3.153,14.61,0.522,16.494c-0.635,0.905-0.66,0.725-0.295,1.587c-0.455,0.635-0.725,0.589-1.362,0.793   c-2.019,4.9,2.337,6.193,2.45,10.188c0.296,0.158,0.613,0.431,0.952,0.658c0,0,16.108-0.567,25.681-0.773   c0.365-0.021-0.702-0.363-1.178-0.748c-0.409-0.363-2.291-10.142-1.952-11.502c0.363-0.522,0.682-1.022,0.998-1.565   c-1.429-3.04,0.726-6.217,1.974-8.983c0.976-2.381,1.997-4.787,2.949-7.19c0.931-1.158,2.699-0.84,3.266-2.882   c0.342-1.383-0.272-2.63,0.433-4.378c0.636-1.587,2.361-2.066,2.246-4.084c0.93,0.114,2.542-0.613,2.702-1.406   c0.158-0.228,0.294-0.477,0.453-0.749c0.023,0.591,0.044,0.385-0.159,0.885c0.704-0.34,0.431-0.431,0.839-0.364   c0.204-0.249,0.385-0.521,0.59-0.77c-0.158-0.203-0.294-0.432-0.432-0.634c2.496,0.226,4.334-0.75,6.488-1.997   c1.318,0.34,0.841-0.634,0.726-1.359c0.319-0.387,0.659-0.522,1.158-0.818c0.022,0.091,0.067,0.135,0.112,0.182   c-0.18,0.204-0.384,0.408-0.543,0.589c0.159,0.089,0.363,0.159,0.543,0.273c0.613,0.478,2.905-0.749,4.267-0.613   c1.338,0.137,4.22,1.25,5.242,1.792c0.135-0.022,0.272-0.022,0.43-0.022v-0.567c-0.339-0.045-0.657-0.067-0.998-0.09   c-0.044-0.137-0.09-0.273-0.159-0.432c0.411-0.112,0.771-0.226,1.18-0.362c0.115,0.521,0.931,1.361,1.385,1.905   c-0.09,0.045-0.182,0.114-0.271,0.159c-0.09,0.158-0.204,0.318-0.272,0.477c0.453,0.318,0.906,0.704,1.384,1.044   c0.679-0.273,1.338-0.567,2.018-0.818c0.067,0.318,0.158,0.659,0.251,0.977c0.997-0.272,1.089-0.816,1.723-1.384   c0.591,0.613,1.045,1.498,1.837,1.883c0.137,0.067,0.295,0.182,0.431,0.272h0.183c0.182-0.25,0.363-0.522,0.545-0.771   c-0.477-0.432-0.951-0.885-1.383-1.339c-0.113-0.067-0.205-0.181-0.316-0.271c0.406-0.521,0.749-0.66,1.586-0.816   c0.25-0.498,0.181-0.498,0.158-1.293c-0.385,0.228-0.793,0.432-1.157,0.659h-0.135c-0.091-0.159-0.18-0.249-0.296-0.432   c2.224-1.407,4.856-1.067,7.17-0.613c0.136-0.386,0.272-0.703,0.431-1.044c0.16-0.091,0.296-0.181,0.455-0.317   c-0.045,0.612-0.045,1.27-0.045,1.861c3.244,0.385,5.627-0.885,8.03,1.656C387.004,124.411,386.983,125.479,387.254,125.75"/>
	<path d="M485.69,16.334c-0.658,0.227-1.272,0.454-1.907,0.659c-0.069,0.249-0.113,0.477-0.16,0.703v0.138   c1.022,0.522,4.107,1.178,5.491,0.431c0.295-0.272,0.591-0.521,0.862-0.817v-0.431C488.618,16.697,487.573,16.334,485.69,16.334"/>
	<path d="M493.336,16.787c0.25,0.295,0,0.114,0.41,0.295C493.609,16.969,493.472,16.901,493.336,16.787"/>
	<path d="M469.583,22.504c-0.705-0.362-1.657-0.588-2.564-0.499c0.16-0.363,0.295-0.75,0.454-1.089   c-1.134-0.727-3.403-1.384-4.128-2.45c-0.521-0.5,0.043-1.181-0.817-1.589c-0.113,0.137-0.204,0.273-0.295,0.408   c-2.653-0.272-5.67,1.067-6.466,2.836c-1.36-0.022-2.608-0.022-3.312,0.545c0.749,0.566,2.744,0.384,3.742,0.408   c-0.205,0.134-0.41,0.272-0.612,0.407c-0.138,0.272-0.295,0.545-0.432,0.817c2.109,0.385,5.515-0.227,6.965-1.111   c0.817,0.226,1.611,0.454,2.427,0.682c-0.227,0.068-0.477,0.159-0.726,0.273c1.363,1.157,3.744,1.179,6.354,1.088   C469.99,22.98,469.81,22.776,469.583,22.504"/>
	<path d="M462.368,18.104c-0.157-0.136-0.295-0.271-0.452-0.432c-0.09,0.295-0.182,0.567-0.295,0.795   c0.341-0.113,0.68-0.227,1.021-0.364H462.368z"/>
	<path d="M500.891,22.89c0.521-0.317,0.386,0.046,0.295-0.521c-1.814-0.068-1.497-0.84-2.881-1.136   c-0.319,0.206-0.681,0.365-1.021,0.523c0.25,0.612,0.25,0.681-0.022,1.203c1.883-0.068,2.472,0.066,4.195,0.385   C501.276,23.208,501.071,23.072,500.891,22.89"/>
	<path d="M513.21,21.732c-0.045,0.069-0.09,0.159-0.137,0.228h0.272C513.299,21.892,513.276,21.802,513.21,21.732"/>
	<path d="M501.774,22.799c0.228,0.273,0,0.067,0.433,0.273C502.047,22.98,501.91,22.869,501.774,22.799"/>
	<path d="M460.032,23.366c-0.794,0.25-1.587,0.454-2.336,0.659c0.022,0.316,0.044,0.634,0.09,0.952   c2.2-0.227,4.221-0.09,6.124-0.659c0.045-0.067,0.091-0.158,0.138-0.295C462.732,23.798,461.371,23.57,460.032,23.366"/>
	<path d="M476.389,23.502v0.409c0.296,0.022,0.657,0.022,1.022,0.022v-0.134C477.047,23.684,476.729,23.616,476.389,23.502"/>
	<path d="M497.487,25.771c-0.363-0.84-1.431-1.315-2.404-1.564c0.021,0.318,0.068,0.657,0.09,0.953h-1.292   c0.021,0.089,0.113,0.18,0.16,0.271c1.427,0.181,2.608,0.364,3.719,0.75C497.67,26.042,497.578,25.907,497.487,25.771"/>
	<path d="M473.893,24.318c-0.045,0.114-0.113,0.182-0.159,0.273c0.34,0.272,0.656,0.545,0.999,0.816   c0.455,0.045,0.884,0.068,1.317,0.136c0.043-0.068,0.089-0.09,0.134-0.136c0-0.114,0-0.272,0.024-0.431   C475.436,24.774,474.666,24.524,473.893,24.318"/>
	<path d="M478.522,24.75c-0.477-0.113-0.974-0.181-1.43-0.272c0.25,0.612,0.635,0.727,1.133,1.09h0.567   c0.045-0.069,0.113-0.16,0.138-0.274C478.793,25.091,478.681,24.909,478.522,24.75"/>
	<path d="M468.064,25.954c-0.477,0.158-0.976,0.316-1.453,0.499c-0.112,0.227-0.204,0.385-0.319,0.566   c0.16,0.204,0.274,0.455,0.409,0.703c1.089,0.16,1.656-0.452,2.632-0.68c0.159-0.181,0.317-0.364,0.455-0.589   C469.287,26.18,468.971,25.976,468.064,25.954"/>
	<path d="M490.069,26.746c-0.022,0.114-0.022,0.182-0.022,0.295c0.159-0.047,0.316-0.114,0.477-0.136v-0.137   C490.386,26.77,490.206,26.77,490.069,26.746"/>
	<path d="M483.377,27.813c0.294,0.409,0.658,0.478,1.157,0.659h0.566C484.738,28.13,484.034,27.927,483.377,27.813"/>
	<path d="M555.018,31.057c0.23,0.295,0,0.068,0.457,0.295C555.201,31.057,555.475,31.239,555.018,31.057"/>
	<path d="M468.677,30.038c0.112,0.089,0.181,0.157,0.271,0.271h0.862c0-0.067,0.023-0.112,0.023-0.159   C469.448,30.127,469.083,30.059,468.677,30.038"/>
	<path d="M610.601,40.948c-1.133,0.318-1.634-0.409-2.609-0.999c-0.25,0.022-0.497,0.068-0.747,0.09   c0.182,0.136,0.315,0.296,0.475,0.455c-1.609,0.339-3.563-0.725-5.216-1.134c-0.069,0.045-0.09,0.114-0.137,0.136   c0.065,0.18,0.157,0.431,0.271,0.612c-0.7-0.545-1.267-1.067-2.312-1.27v0.158c0.318,0.273,0.566,0.567,0.862,0.886v0.135   c-0.772-0.249-0.636-0.365-1.157,0.113c-1.658-1.384-2.996-3.153-5.786-3.471c0.272,0.25,0.477,0.499,0.747,0.77   c-0.405-0.158-0.768-0.363-1.199-0.477c-0.362,0.273-0.749,0.59-1.135,0.954c-0.067,0.068-0.113,0.159-0.158,0.25   c1.906,0.454,3.79,0.953,5.672,1.406c-0.929,0.68-1.927,0.407-3.493,0.113c-0.047,0.045-0.092,0.136-0.137,0.182   c0.045,0.09,0.09,0.18,0.137,0.272c2.634,0.635,3.696,1.36,5.512,2.269c0.047,0.114,0.092,0.228,0.139,0.319   c-0.457-0.159-0.954-0.25-1.431-0.364c-0.066,0.045-0.111,0.09-0.185,0.135c0.113,0.182,0.229,0.433,0.295,0.591   c3.949,1.043,13.568,5.853,16.902,2.042v-0.136C614.207,43.875,611.69,42.218,610.601,40.948"/>
	<path d="M494.561,34.256v0.319c0.114-0.136,0.181-0.227,0.316-0.319H494.561z"/>
	<path d="M508.081,35.05c0.273,0.386,0.159,0.319,0.705,0.453v-0.134C508.513,35.141,508.603,35.163,508.081,35.05"/>
	<path d="M511.417,35.708c-0.409-0.135-0.794-0.205-1.156-0.317c-0.206,0.499-0.022,0.432-0.998,0.386   c0,0.045-0.024,0.089-0.024,0.134c0.409,0.5,1.111,0.954,1.859,1.182c0.25-0.183,0.499-0.385,0.727-0.568   C511.69,36.251,511.552,35.98,511.417,35.708"/>
	<path d="M500.051,36.57c-0.25-0.091-0.477-0.114-0.703-0.159c-0.159,0.068-0.32,0.159-0.454,0.295   c-0.091,0.09-0.204,0.249-0.295,0.385c0.5,0.386,1.294,0.271,2.042,0.158c0.044-0.067,0.09-0.181,0.136-0.25   C500.55,36.865,500.301,36.707,500.051,36.57"/>
	<path d="M725.372,161.32c-0.727-1.451-1.432-2.948-2.111-4.468c0.136,0.226,0.25,0.431,0.409,0.635   c0.09,0.045,0.158,0.09,0.272,0.159v-0.296c0.182-0.702-0.68-1.633-1.134-2.246c0.091-0.044,0.228-0.067,0.295-0.089   c0.293,0.318,0.658,0.657,1.021,1.043c0.022,0,0.092,0.045,0.112,0.045c-0.247-0.612-0.477-1.202-0.726-1.814   c0.568,0.522,1.045,1.044,1.589,1.565c-0.703-1.588-2.607-4.833-4.263-5.535c0.226-0.59,0-0.341,0.568-0.204   c-0.501-1.861-3.292-3.517-3.564-6.285c0.047,0,0.114,0.021,0.137,0.021c0.248,1.52,1.36,1.112,1.998,1.77h0.181   c-0.591-0.817-1.181-1.632-1.723-2.45c0.271-0.204,0.542-0.43,0.837-0.658c0.705-0.454,1.201,1.067,2.135,1.067   c0.089,0.635,0.156,0.681,0.246,1.338c0.157-1.748-0.045-3.993-0.293-4.606c-0.748-0.862-1.271-2.133-1.929-3.243   c-2.202-3.654-3.766-6.648-5.397-10.822c-0.411-1.043-13.638-21.665-30.473-37.455C666.16,72.527,645.107,61.116,645.4,61.047   c-0.451,0.5-0.768,0.931-1.541,1.157c0.092,0.909-0.09,0.909,0.293,1.476c-0.452,0.181-0.749,0.386-1.271,0.635   c0.521,0.793,1.248,1.293,1.749,1.928c0.112,0.521,0.227,0.999,0.318,1.498c1.338,1.996,4.085,2.994,5.15,5.421   c0.725,0.159,0.658-0.022,1.132-0.341c0.229,0.544,0.433,1.157,0.636,1.77c0.726,0.908,4.512,3.084,5.943,2.2   c0.657-0.363,0.727-1.406,0.409-2.246c0.272-0.159,0.568-0.271,0.837-0.408c-0.112-0.204-0.182-0.431-0.271-0.659v-0.157   c4.036,1.927,6.057,6.964,10.344,8.688c0.182,0.521,0.407,1.021,0.589,1.521c-0.636,0.225-0.772,0.679-1.11,1.155   c0.771,1.068,1.724,1.885,3.039,2.475c-0.385,0.566-0.273,0.273-1.019,0.068c0,0.067,0,0.113,0.021,0.136   c0.319,0.521,0.615,0.727,1.157,1.021c0.295,0.021,0.567,0.045,0.818,0.045v-1.09c-0.387-0.408-0.863-1.27-1.568-1.587   c0-0.477-0.088-0.135,0.277-0.499c-0.298-0.341-0.615-0.705-0.866-0.999c0.774,0.43,1.227,1.021,1.613,1.838   c0.544,0.021,1.11,0.09,1.723,0.09c0.045,0.022,0.067,0.022,0.137,0.022v-0.431c-0.432-0.454-0.794-0.952-1.179-1.406   c0.203-0.386,0.181-0.183,0.136-0.659c0.497,0.044,1.065,0.136,1.564,0.204c-0.182-0.363-0.385-0.726-0.589-1.111   c0.296,0.25,6.101,5.445,5.809,5.626c-0.796,0.408-0.615,0.793-0.407,1.633c-0.25,0.066-0.454,0.135-0.704,0.227   c-0.976,1.156-1.271,0.066-2.428-0.022c-0.497-0.5-0.273-0.204-0.157-0.705c-0.456-0.362-0.888-0.793-1.317-1.132   c0,0.25,0.022,0.566,0.022,0.793c-0.294-0.044-0.568-0.114-0.862-0.182c0.18,0.839-0.205,0.521-0.434,1.59   c-0.201-0.045-0.477-0.114-0.678-0.159c-0.296-0.316-0.454-1.066-0.477-1.383c-0.294-0.341-0.184-0.295-0.728-0.454   c0.116,0.159,0.184,0.387,0.32,0.567c-1.18,0.022-2.086-0.955-2.882-1.632c-0.341-0.091,0-0.069,0.111-0.274   c-0.383-0.363-0.59-0.499-1.315-0.612c-0.022-0.113-0.09-0.181-0.112-0.273c0.022-0.066,0.069-0.18,0.112-0.272   c0.955,0.567,1.951,1.179,2.904,1.747c-0.568-1.269-1.951-3.175-3.469-2.722c-0.364-0.407-0.501-1.476-0.91-2.087   c0.204,0.137,0.364,0.206,0.589,0.318c0.047-0.204,0.067-0.453,0.112-0.657c-1.339-1.543-3.221-2.36-3.97-4.515   c-0.293,0.136-0.544,0.273-0.816,0.406c0.091,0.365,0.203,0.794,0.295,1.181c-0.204,0-0.385,0-0.589-0.022   c-0.201,0.136-0.477,0.251-0.68,0.363c0.477,2.564,5.715,6.512,5.421,7.669c0.341,0.067,0.683,0.136,1,0.228   c0.589,0.998,1.223,1.565,1.904,2.654c-0.546,0.227-0.362-0.068-0.272,0.816c-0.886-0.296-1.045-0.408-2.155-0.385v0.681   c-0.659,0.067-1.34,0.158-1.976,0.181c-0.113,0.226-0.228,0.453-0.293,0.657c0.202,0.365,0.385,0.659,0.566,0.976   c0.589,0.272,0.452,0.272,1.021,0.067c0.364,0.793,0.682,0.953,0.612,1.656c-0.407,0.499-0.113,0.273-0.725,0.113   c-0.045-0.021-0.114-0.021-0.159-0.021c0.137,1.021,0.114,1.203,0.591,1.814c-0.364-0.067-0.749-0.135-1.132-0.181   c-0.479-1.452-1.002-2.881-1.477-4.311c-0.092-0.067-0.23-0.113-0.341-0.136h-0.092c0.452,1.906,2.063,4.969,0.907,6.058   c-0.75,0.704-2.225,0.839-2.857,1.678c0.432,0.906,0.794,1.792,1.179,2.676c-0.454,0.454-0.747,0.635-1.564,0.793   c-0.364,0.477-0.725,0.931,0,1.384c-0.114,0.136-0.272,0.295-0.407,0.432c-1.771,0.364-3.766-1.179-5.083-1.657   c-0.021,0.046-0.09,0.114-0.137,0.138c0.818,1.202,1.906,1.904,2.338,3.424c0.182,0.113,0.317,0.295,0.452,0.407v0.138   c-1.156-0.159-1.814-0.341-2.608,0.294c-0.544-0.453-1.155-0.862-1.748-1.316c-0.951,0.521-2.518,0.317-3.334,1.157h-0.272   c0.248,1.225,1.134,1.089,1.906,1.702c-0.32,0.045-0.615,0.112-0.886,0.158c1.543,1.407,3.835,1.044,5.967,1.839   c0.09,0,6.872,6.353,6.964,6.669c-0.249-0.181-0.477-0.363-0.75-0.59c-0.021,0.067-0.065,0.114-0.135,0.135   c1.726,2.361,3.607,5.809,3.607,10.278c-2.52,0.931-8.373-0.704-11.662-1.133c-0.882-0.089-3.061,0.885-4.377,0.453   c-0.635-0.25-0.906-0.771-1.904-0.544c-0.771-0.182-1.201,0.703-0.865,1.407c-0.7,0.204-1.587,0.294-1.859,0.815   c-0.229,0.114-0.428,0.227-0.587,0.364c0.045,1.476,0.929,1.36,1.133,2.474c0.409-0.09,0.293-0.09,0.727-0.319   c0.318,2.475,1.771,4.22,2.607,6.556c0.751,2.065,0.319,8.19-0.112,10.232c0.658,0.544,0.978,0.975,1.564,1.655   c0.274-0.181,0.57-0.341,0.863-0.522c0.75,1.929,1.269,3.926,1.18,6.989c1.338-0.499,3.016,0.295,3.743,0.045   c0.521-0.158,0.77-0.794,1.655-0.998c2.45-1.111,3.652,4.811,6.353,5.285c0.544-0.567,2.632-2.563,2.809-3.062   c1.951-0.045,3.291-0.295,4.878,0.204c0.114-0.204,0.206-0.409,0.322-0.613c0.768,0.068,0.839,0.159,1.267,0.5   c0.454-0.977,0.841-2.791,1.203-3.631c0.499-0.226,0.681-0.271,1.589-0.271c0.045-0.839-0.564-2.109-0.065-3.607   c0.249-0.84,0.906-0.885,1.157-1.952c-4.381-2.97-0.432-6.713-1.656-9.072c0.838-1.088,1.542-0.727,2.587-1.498   c0.634-0.453,1.313-1.816,1.884-2.403c-0.252-1.59-2.702-3.88-2.137-5.582c0.206-0.477,0.889-0.794,1.159-1.385   c2.202,0.726,3.583,1.679,5.512,2.404c0.933-0.863,0.704-2.563,2.452-2.836c0.111-0.634,0.272-1.315,0.407-1.972   c0-0.114-0.021-0.205-0.021-0.274c3.9,0.635,6.171,5.966,8.143,8.666c0,0,5.421,5.194,5.627,5.332   c0.137,0.09,0.728-0.227,1.293,0.137c0.318,0.545,0.66,1.132,0.976,1.7c4.174,3.857,5.401,5.037,7.191,11.025   c-0.43,0.227-1.291,0.341-1.678,1.067c-1.43-0.067-1.43-0.226-2.312-0.93c-0.206,0.272-0.161,0.181-0.253,0.704   c-0.201-0.182-0.385-0.32-0.588-0.477c-0.021,0-0.09-0.022-0.137-0.022c-0.067,0.658-0.202,1.338,0.137,1.929   c0.272,0.453,5.492,4.628,6.104,4.899h0.157c-0.318-2.177-1.431-3.312-1.431-6.011c0.32,0.251,0.57,0.432,0.862,0.658h0.113   c0.318-1.156,0.049-2.563-0.364-3.539c0.09-0.771,0.024-0.567,0.546-0.815c-0.456-1.838-1.385-2.043-2.246-3.267   c-0.273-1.09-0.568-2.223-0.884-3.313c0.113-0.088,0.226-0.158,0.317-0.25c0.591,0.906,2.224,2.608,3.13,3.2   c-0.771-3.131-3.855-5.808-6.554-7.146c-0.319-0.567-0.409-0.952-0.385-1.929c-0.886-0.453-1.566-0.089-2.452-0.816   c-2.065-1.702-2.996-4.378-4.649-6.533c-1.43-1.814-4.108-2.541-4.833-5.059c0.047-0.317,0.136-0.658,0.183-0.976   c-0.34-0.793-1.179-0.953-1.452-1.996c0.793-0.137,0.75-0.364,1.112-0.908c0.202,0.045,0.383,0.067,0.611,0.067   c0.521,0.68,1.566,2.676,1.949,3.628c0.113,0.046,0.228,0.068,0.295,0.16c0.022-0.318,0.114-0.682,0.135-0.978   c0.274,0.5,0.501,0.978,0.727,1.499c0.159,0.113,0.249,0.226,0.434,0.316c-0.205-0.476-0.389-0.929-0.543-1.315   c1.313,0.477,1.835,2.813,2.517,3.631c1.021,1.293,2.585,1.995,3.516,2.948c-0.159-0.044-0.34-0.134-0.523-0.203   c0.364,0.68,0.638,0.861,0.976,1.43c0.25,0,0.479,0.045,0.705,0.067c-0.227-0.251-0.452-0.453-0.705-0.658   c0.114-0.045,0.184-0.091,0.275-0.114c0.295,0.204,0.612,0.432,0.884,0.658c0.047,0.114,0.091,0.181,0.113,0.295   c-0.295,0.091-0.57,0.136-0.839,0.206c0.613,0.633,0.497,0.045,1.246,0.43c1.589,0.772,4.174,3.471,5.149,4.967   c0.727,2.11,1.565,4.197,2.385,6.308c0.951,1.816,3.152,3.653,3.945,5.583c0.432-0.022,0.044,0.045,0.432-0.092   c0.045,0.159-0.343,0.793,0,1.431c0.407,0.612,1.271,1.474,2.267,1.633c-0.204,0.792-0.271,0.589-0.271,1.724   c1,1.407,1.973,2.79,2.539,4.672c0.159,0.068,0.318,0.206,0.432,0.319h0.139c-0.114-0.319-0.156-0.725-0.25-1.044   c0.047,0,0.094,0,0.136,0.045c0.296,0.704,0.636,1.452,0.998,2.201c0.069,0.045,0.159,0.091,0.251,0.159   c-0.092-0.386-0.182-0.748-0.251-1.178c0.251,0.364,0.525,0.748,0.84,1.067h0.14v-0.004H725.372z"/>
	<path d="M447.78,47.504c-0.747-0.432-1.768-0.588-2.903-0.68c-0.227,0.09-0.477,0.182-0.748,0.295   c0.431,0.815,2.609,1.497,3.632,1.769h0.112C448.054,48.253,447.941,48.027,447.78,47.504"/>
	<path d="M519.356,51.746c0.272,0.477-0.09,0.158,0.456,0.432h0.135c0.066-0.091,0.091-0.18,0.158-0.273   C519.857,51.859,519.584,51.793,519.356,51.746"/>
	<path d="M527.026,58.645c0.112,0.135,0.203,0.271,0.293,0.409c0.045,0,0.092,0,0.159,0.022v-0.161   C527.319,58.826,527.183,58.734,527.026,58.645"/>
	<path d="M522.191,61.139c-0.338,0.09-0.681,0.159-1.043,0.25c-0.112,0.977-0.137,0.274-0.407,0.84   c1.996-0.09,3.923-0.387,5.647-0.499C525.006,61.524,523.599,61.321,522.191,61.139"/>
	<path d="M531.651,64.066c0,0.409-0.134,0.18,0.139,0.567c0.137-0.113,0.293-0.203,0.454-0.272v-0.159   C532.038,64.133,531.857,64.087,531.651,64.066"/>
	<path d="M501.344,68.808c-0.047,0.089-0.09,0.158-0.136,0.271c3.29,2.043,5.558,3.79,9.892,5.105   c0.114-0.045,0.203-0.089,0.293-0.113v-0.409C509.104,71.643,505.201,69.035,501.344,68.808"/>
	<path d="M537.892,71.122c-0.045,0.158-0.112,0.294-0.161,0.432c0.523-0.251,0.206,0.09,0.457-0.408   C538.096,71.144,537.983,71.122,537.892,71.122"/>
	<path d="M660.603,98.412c-0.681-0.045-1.36-0.134-2.021-0.179c0.295-0.614,1.047-1.565,0.795-2.497   c-0.32-1.408-2.904-4.243-4.471-2.45c-0.133-0.022-0.291-0.091-0.475-0.159c-0.861-1.791-2.289-3.992-4.514-5.421   c-0.908-0.385-1.77-0.75-2.653-1.088c-2.362-2.246-3.473-4.016-7.056-4.063c0.386-0.294,0.771-0.545,1.178-0.816   c-0.248-0.205-0.497-0.409-0.748-0.567c0.568-1.156-0.111-2.065,0.11-3.154c-1.289-1.315-3.717-0.953-5.419-0.612   c0-0.817,0.272-0.5-0.433-0.817c0.184-0.658,0.452-1.065,0.976-1.383c-0.089-0.318-0.203-0.658-0.295-0.977   c-1.497-0.318-2.947,0.319-4.377-0.135c-0.317,0.386-0.272,0.477,0,0.977c-0.226,0.587-0.137,0.657,0.34,1.247   c-0.115,0.045-0.228,0.09-0.319,0.136c-0.497-0.068-0.246-0.136-0.568,0.272c0.275,0.477,0.568,0.953,0.888,1.43v0.135   c-0.635-0.453-1.293-0.929-1.906-1.385c-0.317,0.568-0.158,0.228-0.612,0.887c0.77,0.725,2.36,1.269,3.107,1.315   c0.114,0.203,0.229,0.362,0.32,0.588c-0.275,0.137-0.499,0.296-0.75,0.432c0.32,0.727,0.568,0.727,0.454,1.543   c0.477-0.045,0.974-0.135,1.452-0.182c0.069-0.226,0.112-0.476,0.157-0.679v-0.295c0.067,0,0.092-0.023,0.139-0.023   c0.246,1.589,1.089,2.678,1.519,4.357h0.589c0.045-0.091,0.09-0.206,0.135-0.296c-0.09-0.25-0.202-0.477-0.294-0.703   c0.294,0.181,0.589,0.364,0.887,0.545h0.134c-0.156-0.455-0.293-0.955-0.452-1.384c0.405,0.272,0.793,0.543,1.18,0.816   c0.34,0.636,0.317,1.271,0.047,2.111c0.43,0.364,0.882,0.727,1.291,1.112h0.204c-0.137-0.207-0.251-0.386-0.363-0.568v-0.134   c0.475,0.181,0.908,0.34,1.363,0.543v-0.566c0.951,0.363,1.313,0.136,2.038-0.431c0.978,1.203,0.57,3.129,2.951,2.768   c0.021,1.18,0.317,1.587,0.726,2.337c-1.135,0.93-2.268,0.272-3.473,0.045c0.158,0.93,0.479,0.772,1.045,1.271   c-0.227,0.204-0.408,0.453-0.613,0.705c0.047,0.065,0.112,0.157,0.184,0.25c0.385-0.16,0.747-0.296,1.132-0.432   c0.409,0.522,0.841,1.021,1.202,1.519c-0.155,0.908-0.929,1.294-1.882,1.431c-0.137,0.136-0.294,0.295-0.431,0.453   c0.478,0.408,0.998,0.793,1.497,1.224c1.521-0.792,2.927,0.206,4.628,0.794c0.387-0.181,0.794-0.408,1.181-0.567   c-0.228,0.477-0.183,0.432-0.136,0.999h-2.927c0.021,1.293-0.842,2.744-1.974,3.833v0.294c0.749,0.045,0.837-0.067,1.631,0.386   c0.363-0.567,0.159-1.022,1.249-1.293c0.77-0.226,1.589,0.227,2.332,0.408c0.049-0.499-0.135-1.43,0.297-1.702   c0,0,4.605,0.363,4.786,0.477h0.432c-0.111-0.273-0.203-0.477-0.315-0.726c2.222,0.091,3.312,0.045,5.058-0.839   c0.02-0.068,0.089-0.181,0.136-0.272C660.784,98.935,660.715,98.685,660.603,98.412"/>
	<path d="M546.558,88.136c-0.704-0.181-0.816,0.453-2.041,0.634c-0.022-0.204-0.066-0.408-0.115-0.588   c0.411-0.567,0.863-0.976,1.59-1.225c0.067-0.067,0.112-0.159,0.159-0.272c-0.047-0.067-0.092-0.113-0.159-0.158   c-1.814,0.091-2.177,0.499-3.222,1.293c-0.09-0.205-0.182-0.409-0.293-0.612c-0.363-0.089-0.092,0.137-0.409-0.158   c1-0.886,3.087-1.43,3.494-1.838c0.09-0.068,0.204-0.183,0.318-0.251c-0.634-0.588-2.18-0.477-3.223-0.588   c0.341-0.932,0.022-0.251-0.156-1.431c0.837-0.159,1.154-0.294,1.631-0.793c-0.951-0.862-2.517-1.747-3.811-1.497   c-0.588-0.567-0.089-0.931-0.996-1.316c-0.432,0.182,0,0.273-0.477,0.135c-0.091,0.386-0.136,0.227,0.182,0.568   c-0.297-0.022-0.591-0.022-0.884-0.045c-0.841,0.045-0.546,0.09-0.454-0.705c-0.726,0.066-0.434-0.092-0.568,0.364   c-0.544-0.295-0.861-0.477-1.454-0.454c0.092-0.158,0.184-0.317,0.272-0.455c-0.541-0.271-0.181-0.158-0.7-0.021   c-0.092-0.113-0.229-0.181-0.32-0.295c0-0.181,0-0.364,0-0.567c0.589-0.044,1.182-0.065,1.748-0.091c0-0.022,0-0.088,0-0.136   c-0.863-0.633-1.861-0.633-2.768-1.405c-0.885,0.34-1.748,0.704-2.611,1.044c0.411-1.431,2.953-2.746,4.379-3.064   c0.205-0.249,0.409-0.499,0.615-0.704c-0.432-0.34-0.432-0.408-1.157-0.499V72.87v-0.137c0.75,0.205,1.269,0.432,2.041,0.364   c0.09-0.091,0.184-0.179,0.295-0.249c0.022-0.159,0.067-0.295,0.137-0.432c-0.794-0.25-1.589-0.453-2.336-0.682   c-0.884,0.023-1.771,0.023-2.632,0.045c-0.568,0.115-2.109,1.021-2.949,1.453c-1.565,0.748-2.199,2.767-4.242,3.221   c-0.272,0.545-0.25,0.408-0.024,0.998v0.135c-0.565-0.112-0.432,0-0.725-0.294c-0.906,0.203-1.405,0.839-1.904,1.451   c0.271,0.273,0.566,0.546,0.882,0.75c-1.222-0.205-2.721,0.522-4.126,0.725c0.111,0.432,0.203,0.952,0.293,1.384   c2.403,0.636,12.208,2.609,13,3.448c-0.18-0.023-0.385-0.023-0.568-0.045c0.976,0.407,1.951,0.793,2.929,1.156   c0.227-0.272,0.182-0.18,0.273-0.704c0.635,0.25,1.269,0.522,1.904,0.794c-1.202,0.454-2.495,0.794-4.538,0.68   c-0.067,0.16-0.112,0.364-0.157,0.545c3.084,1.156,5.557-0.272,8.189-1.044c0.229,0.227,0.409,0.499,0.613,0.749   c-0.045,1.18-0.747,1.611-1.475,2.066c0.202,0.588,0.114,0.453,0.568,0.747c0.678-0.181,1.381-0.432,2.041-0.612   c-0.273,0.521-0.385,0.75-0.432,1.702c0.792,0.204,1.407,0.294,2.177,0.545c1.092-0.545,1.407-1.657,2.383-2.36   C546.67,88.908,546.627,88.5,546.558,88.136"/>
	<path d="M628.727,74.637c-0.248-0.044-0.497-0.089-0.768-0.136c-0.364,0.341-0.75,0.681-1.137,0.999   c0.409,0.522,0.681,0.68,0.728,1.157c0.156,0.067,0.293,0.159,0.43,0.273c0.34-0.296,0.702-0.591,1.045-0.864   C628.908,75.591,628.796,75.115,628.727,74.637"/>
	<path d="M536.393,74.207v0.273c0.116-0.091,0.206-0.159,0.298-0.273H536.393z"/>
	<path d="M627.978,77.2c-0.159-0.066-0.362-0.18-0.566-0.271c-0.182,0.113-0.407,0.203-0.568,0.294   c0.499,0.522,0.819,0.955,1.229,1.703c0.087,0.021,0.246,0.067,0.405,0.114C628.319,78.425,628.16,77.835,627.978,77.2"/>
	<path d="M536.259,74.774c0.134,0.159,0.271,0.296,0.432,0.453c0.089-0.09,0.203-0.112,0.315-0.157v-0.138   C536.735,74.887,536.509,74.818,536.259,74.774"/>
	<path d="M664.505,79.493c0.09,0.158,0.181,0.293,0.295,0.43h0.135C664.664,79.447,665.002,79.786,664.505,79.493"/>
	<path d="M630.655,78.994c0.182,0.203,0.32,0.385,0.456,0.545c0.045-0.067,0.09-0.159,0.157-0.25   C631.04,79.196,630.859,79.108,630.655,78.994"/>
	<path d="M628.047,79.196v0.296c0.111-0.092,0.272-0.114,0.43-0.16v-0.137H628.047z"/>
	<path d="M630.998,80.287c-0.047,0.021-0.114,0.09-0.161,0.135v0.137c0.047,0.043,0.114,0.09,0.161,0.135h0.136   c0.022-0.135,0.065-0.295,0.135-0.408L630.998,80.287L630.998,80.287z"/>
	<path d="M630.385,80.695v0.432h0.315C630.499,80.695,630.7,80.966,630.385,80.695"/>
	<path d="M521.898,78.154c-0.296,0-0.568-0.021-0.84-0.021c-0.137,0.021-0.228,0.066-0.338,0.135   c-0.047,0.136-0.094,0.25-0.139,0.408c0.683,0.092,1.36,0.159,2.043,0.228C522.398,78.654,522.148,78.403,521.898,78.154"/>
	<path d="M541.067,79.696c-0.045,0.204-0.112,0.363-0.182,0.591c0.409,0,0.816,0.021,1.201,0.045   C541.816,79.673,541.882,79.81,541.067,79.696"/>
	<path d="M633.944,81.919c-0.362,0.568-0.452,0.773-1.179,0.999c0.25,0.794,0.432,0.589,1.045,0.952   C634.218,83.507,634.398,82.488,633.944,81.919"/>
	<path d="M632.9,82.079c-0.065,0.022-0.112,0.092-0.135,0.137v0.134c0.067,0.022,0.184,0.067,0.295,0.138   c0.045-0.068,0.065-0.114,0.137-0.138C633.083,82.239,633.016,82.171,632.9,82.079"/>
	<path d="M500.8,80.672c-0.546-0.318-0.296-0.021-0.456-0.749c-0.68-0.634-0.362-0.384-0.135-1.294   c-0.136-0.021-0.272-0.088-0.408-0.158c-0.546,0.272-1.09,0.454-1.634,0.681c-0.044,0.09-0.09,0.181-0.135,0.249   c1.542,1.409,2.927,2.223,5.082,3.018c0.477,0.295,0.181,0,0.295,0.454c0.362,0.409,0.566,0.5,1.179,0.771   c1.339-0.271,1.135-0.975,3.086-0.906c0.024-0.045,0.092-0.067,0.137-0.136v-0.182C506.835,82.032,500.8,80.672,500.8,80.672"/>
	<path d="M635.987,83.009h-0.319v0.59c0.228-0.092,0.43-0.137,0.615-0.181C636.169,83.282,636.098,83.145,635.987,83.009"/>
	<path d="M636.94,89.612c-0.047-0.068-0.116-0.205-0.137-0.295c0.909-0.295,0.84-0.704,1.428-1.021v-0.681   c-1.02-0.998-1.931-0.998-2.835-2.358c-1.066-0.523-1.904-0.318-2.768,0.385c0.092-0.34,0.047-0.182,0.295-0.613   c-0.43-0.158-0.861-0.317-1.338-0.521c-0.387,0.476-1.201,0.68-2.177,0.793c-0.159,0.954-0.114,0.954-0.591,1.61   c0.544,0.432,1.112,0.364,1.794,0.206c-0.274,0.725-0.546,0.521-0.59,1.179c-1.316,0-2.634,0.021-3.992,0.045   c0.112,0.838,0.271,0.317,0.611,0.838c-0.157,0.068-0.271,0.114-0.43,0.182c0.543,0.543,1.087,0.499,1.929,0.453   c-0.521,0.544-0.589,0.634-1.043,1.088c1.177,1.52,2.13,0.613,3.854,1.066c-0.976,0.658-0.703,0.68-0.726,1.656   c-0.655,0.634-0.589,0.386,0,0.862c-0.385,0.659-0.248,0.25-0.137,1.044c-0.407-0.045-0.794-0.068-1.156-0.09   c-0.135,0.273-0.204,0.499-0.317,0.749c0.567-0.089,1.064-0.182,1.61-0.25c-0.34,0.227-0.68,0.456-1,0.636   c1.748,4.219,7.874-1.203,10.55-1.112C639.662,93.581,638.847,90.563,636.94,89.612"/>
	<path d="M542.951,83.1c-0.045,0.135-0.092,0.273-0.137,0.407c0.137-0.068,0.275-0.089,0.407-0.114   C543.154,83.282,543.043,83.19,542.951,83.1"/>
	<path d="M674.94,86.526c0.11,0.203,0.182,0.454,0.271,0.68c0.385,0.136,0.68,0.25,1.022,0.365   C675.871,86.956,675.688,86.797,674.94,86.526"/>
	<path d="M486.258,83.327c-0.136,0.205-0.273,0.386-0.432,0.544c0.089,0.068,0.179,0.114,0.273,0.16   c0.409-0.318,0.363-0.092,0.611-0.704H486.258z"/>
	<path d="M497.079,83.938c-0.045,0.181-0.09,0.387-0.159,0.567c0.159,0.113,0.319,0.205,0.478,0.319   c0.862-0.114,1.748-0.274,2.631-0.387C499.03,84.28,498.077,84.12,497.079,83.938"/>
	<path d="M640.593,87.706c-0.139,0.295-0.206,0.567-0.296,0.885c0.045,0.09,0.09,0.227,0.139,0.385   c0.271-0.045,0.475-0.091,0.745-0.158c0.045-0.137,0.092-0.295,0.135-0.409C641.069,88.159,640.818,87.954,640.593,87.706"/>
	<path d="M477.025,83.531c-0.091,0.454-0.115,0.318,0.159,0.703c0.092-0.089,0.204-0.203,0.296-0.272   C477.32,83.803,477.206,83.69,477.025,83.531"/>
	<path d="M512.753,85.051h-0.293c-0.022,0.113-0.09,0.181-0.135,0.272C512.753,85.277,513.049,85.505,512.753,85.051"/>
	<path d="M477.908,84.12v0.296c0.092-0.114,0.183-0.228,0.273-0.296H477.908z"/>
	<path d="M512.325,85.483c-0.229-0.024-0.501-0.024-0.729-0.069c-0.294,0.205-0.589,0.41-0.884,0.567   c0.59,0.021,1.156,0.045,1.747,0.091v-0.158C512.415,85.777,512.37,85.595,512.325,85.483"/>
	<path d="M531.087,86.253c0.065,0.18,0.18,0.364,0.27,0.611c0.114-0.137,0.205-0.204,0.295-0.317   C531.473,86.457,531.289,86.365,531.087,86.253"/>
	<path d="M540.454,86.842c-0.227,0.114-0.407,0.274-0.589,0.387c-0.065,0.136-0.092,0.273-0.156,0.432h0.432   c0.272-0.135,0.496-0.227,0.747-0.363v-0.455L540.454,86.842L540.454,86.842z"/>
	<path d="M488.006,85.391c0.25,0.113,0.044,0.113,0.271,0H488.006z"/>
	<path d="M531.064,86.956c-0.047,0.114-0.091,0.182-0.138,0.295c0.138,0.067,0.297,0.089,0.43,0.181   c0.114-0.045,0.229-0.114,0.295-0.16C531.473,87.182,531.267,87.07,531.064,86.956"/>
	<path d="M531.651,87.433v0.272c0.114-0.091,0.206-0.158,0.275-0.25C531.857,87.455,531.766,87.433,531.651,87.433"/>
	<path d="M677.572,91.312c0.317,0.159,0.588,0.319,0.837,0.453V91.63C678.094,91.335,678.113,91.471,677.572,91.312"/>
	<path d="M667.271,92.379c-0.047,0.044-0.112,0.18-0.137,0.249c0.432-0.136,0.159,0,0.432-0.249H667.271z"/>
	<path d="M665.729,93.104c-0.045,0.113-0.109,0.181-0.156,0.295c0.047,0.022,0.111,0.068,0.156,0.134   c0.092-0.089,0.182-0.179,0.273-0.271v-0.138C665.888,93.126,665.82,93.126,665.729,93.104"/>
	<path d="M665.411,94.08c0,0.113,0,0.228,0.045,0.364c0.092,0,0.161,0.045,0.272,0.045C665.548,94.08,665.729,94.306,665.411,94.08"/>
	<path d="M468.926,89.588v0.273c0.09-0.091,0.182-0.159,0.294-0.273H468.926z"/>
	<path d="M463.48,90.2c-0.044,0.137-0.092,0.272-0.135,0.385C463.549,90.314,463.595,90.518,463.48,90.2"/>
	<path d="M466.113,91.381c-0.227,0.067-0.477,0.16-0.75,0.271c0,0.092,0,0.183,0,0.252c0.522,0.066,0.976,0.113,1.476,0.18   c0-0.067,0-0.09,0-0.136C466.542,91.517,466.703,91.562,466.113,91.381"/>
	<path d="M458.058,91.517c-0.089,0.045-0.18,0.113-0.293,0.134v0.114c0.25-0.068,0.498-0.135,0.749-0.226   C458.354,91.54,458.217,91.54,458.058,91.517"/>
	<path d="M461.87,91.562c0.249,0.134,0.022,0.134,0.295,0H461.87z"/>
	<path d="M460.1,91.675c0.114,0.114,0.205,0.205,0.295,0.295h0.158C460.283,91.675,460.554,91.857,460.1,91.675"/>
	<path d="M467.997,92.4c-0.045,0.114-0.09,0.183-0.136,0.294c0.227,0.068,0.499,0.181,0.726,0.295h0.157   c0.046-0.092,0.091-0.181,0.114-0.295C468.585,92.469,468.608,92.469,467.997,92.4"/>
	<path d="M306.061,102.428c-0.5,1.611-1.112,2.677-1.407,4.197c0.068,0,0.113-0.023,0.135-0.023   C305.471,105.446,307.083,104.198,306.061,102.428"/>
	<path d="M303.7,107.758c0.433-0.316,0.207-0.18,0.273-0.476C303.884,107.442,303.814,107.602,303.7,107.758"/>
	<path d="M436.233,110.073c-0.043,0.113-0.088,0.182-0.135,0.273h0.409C436.417,110.255,436.326,110.187,436.233,110.073"/>
	<path d="M301.183,119.308c-0.136,0.68-0.319,1.383-0.432,2.087c0.022,0.089,0.092,0.179,0.113,0.272   c0.092-0.022,0.137-0.022,0.183-0.022c0.181-0.703,0.34-1.431,0.521-2.11C301.454,119.467,301.319,119.42,301.183,119.308"/>
	<path d="M697.285,123.299c0.158,0.181,0.319,0.408,0.456,0.612v-0.453C697.603,123.412,697.443,123.344,697.285,123.299"/>
	<path d="M356.174,120.714c-0.112,0.228-0.179,0.408-0.271,0.589C356.174,120.986,356.288,121.099,356.174,120.714"/>
	<path d="M369.694,120.441c-0.498,0.432-0.906,0.477-1.155,1.203c0.954,0.089,1.542-0.046,2.403,0v-0.136   C370.536,121.144,370.126,120.758,369.694,120.441"/>
	<path d="M352.181,122.46c-0.091,0.159-0.181,0.296-0.272,0.432c0.18-0.113,0.361-0.225,0.545-0.317   C352.362,122.506,352.272,122.506,352.181,122.46"/>
	<path d="M704.272,132.556v0.477h0.273C704.342,132.578,704.546,132.874,704.272,132.556"/>
	<path d="M692.931,131.966c0.136,0.318,0.272,0.68,0.43,1.043c-0.294,0.157-0.589,0.318-0.861,0.521   c0.022,1.837,1.315,4.197,2.519,4.901c0.09,0.113,0.182,0.179,0.296,0.295h0.134C695.403,136.64,694.358,132.783,692.931,131.966"/>
	<path d="M695.063,132.736c-0.113,0.023-0.203,0.045-0.297,0.114v0.407c0.252,0.045,0.456,0.068,0.707,0.068   C695.267,132.874,695.379,133.01,695.063,132.736"/>
	<path d="M294.15,141.29c-0.021,0.092-0.088,0.181-0.137,0.295c0.137,0.18,0.273,0.34,0.409,0.498h0.113   C294.49,141.382,294.581,141.496,294.15,141.29"/>
	<path d="M699.804,148.731c-0.501-3.335-1.927-6.873-3.653-9.188c-0.112-0.046-0.271-0.137-0.428-0.204   c-0.071,0.454-0.186,0.886-0.297,1.339c-0.566,0.318-0.386,0.341-1.135,0.043c0.114,1.679,1.814,3.244,2.383,4.628   c0.52,1.066,0.135,2.382,0.452,3.2c0.589,0.34,0.702,0.839,1.837,1.021c-0.065-0.387-0.09-0.818-0.137-1.204   c0.341,0.045,0.388,0.092,0.817,0.364L699.804,148.731L699.804,148.731z"/>
	<path d="M719.132,142.788v0.612c0.137,0.09,0.296,0.182,0.432,0.319C719.428,143.082,719.472,143.173,719.132,142.788"/>
	<path d="M720.403,143.945c0.091,0.181,0.181,0.362,0.271,0.588h0.184C720.608,143.99,720.857,144.239,720.403,143.945"/>
	<path d="M719.405,145.442c0.066,0.226,0.183,0.477,0.295,0.749c-0.229-0.182-0.387-0.341-0.568-0.476   c0.182,0.294,0.34,0.589,0.568,0.884c0.137-0.137,0.272-0.25,0.43-0.363C719.859,145.941,719.633,145.668,719.405,145.442"/>
	<path d="M720.971,146.146v0.407c0.182,0.181,0.363,0.362,0.589,0.499v-0.59C721.332,146.349,721.152,146.259,720.971,146.146"/>
	<path d="M715.979,147.597c0.203,0.273,0.409,0.499,0.591,0.749C716.389,147.96,716.342,147.891,715.979,147.597"/>
	<path d="M722.376,150.591v0.431c0.206,0.091,0.386,0.25,0.591,0.341C722.762,151.068,722.582,150.862,722.376,150.591"/>
	<path d="M651.8,148.346c0.022,0.271,0.092,0.499,0.137,0.792c0.043-0.295,0.112-0.521,0.159-0.816   C651.979,148.346,651.892,148.346,651.8,148.346"/>
	<path d="M718.814,152.634v1.133c0.184,0.18,0.295,0.339,0.454,0.498c0.137,0.068,0.272,0.113,0.409,0.159   c0.043-0.067,0.09-0.182,0.11-0.25C719.472,153.655,719.154,153.156,718.814,152.634"/>
	<path d="M721.535,153.426c-0.203-0.044-0.36-0.135-0.589-0.181c0.433,0.431,0.887,0.794,1.294,1.249   c0.069-0.089,0.183-0.159,0.295-0.273C722.195,153.948,721.877,153.676,721.535,153.426"/>
	<path d="M719.813,155.038c0.047,0.181,0.114,0.364,0.16,0.589c0.157,0.183,0.361,0.318,0.566,0.477v-0.612   C720.289,155.356,720.085,155.196,719.813,155.038"/>
	<path d="M328.431,155.219v1.157c0.18-0.022,0.385-0.022,0.544-0.045v-0.159C328.813,155.718,328.792,155.492,328.431,155.219"/>
	<path d="M725.233,161.774c0.139,0.296,0.296,0.591,0.388,0.887c0.064-0.114,0.136-0.205,0.201-0.295   C725.576,162.183,725.417,161.958,725.233,161.774"/>
	<path d="M516.497,407.311c-0.045,0.181-0.09,0.385-0.135,0.586c0.229-0.201,0.477-0.407,0.725-0.586H516.497z"/>
	<path d="M511.869,407.559c-0.134,0.112-0.295,0.206-0.452,0.296c0.09,0.111,0.204,0.179,0.318,0.291h0.7v-0.135   C512.257,407.854,512.053,407.695,511.869,407.559"/>
	<path d="M513.028,407.72v0.293c0.09-0.114,0.182-0.181,0.293-0.293H513.028z"/>
	<path d="M489.933,421.669c-0.044,0.16-0.09,0.297-0.112,0.477c0.272-0.294,0.09,0,0.25-0.477H489.933z"/>
	<path d="M489.638,422.442c-0.022,0.112-0.09,0.271-0.113,0.43c0.09-0.113,0.182-0.228,0.274-0.317   C489.751,422.53,489.706,422.463,489.638,422.442"/>
	<path d="M479.157,430.471c-0.683,0.114-1.363,0.184-2.021,0.275c-0.77,1.768-2.563,2.678-4.038,3.676v0.155   c0.272,0.116,0.499,0.205,0.724,0.321c1.386-0.203,2.359-0.751,3.177-1.338c0-0.25,0-0.501-0.022-0.727   c0.951-0.137,1.542-0.591,2.177-1.045L479.157,430.471L479.157,430.471z"/>
	<path d="M399.619,436.144c0.293,0.136,0.043,0.156,0.315,0H399.619z"/>
	<path d="M399.118,440.433c-0.045,0.111-0.112,0.184-0.157,0.295c0.112,0.043,0.205,0.112,0.296,0.157   c0.066-0.045,0.09-0.114,0.137-0.157C399.324,440.613,399.209,440.544,399.118,440.433"/>
	<path d="M435.983,450.709c0.159,0.726,0.113,0.909,0.725,1.155v-0.11C436.461,451.186,436.688,451.005,435.983,450.709"/>
	<path d="M404.133,454.382c0.249,0.432,0.021,0.047,0.453,0.295c0.046-0.045,0.09-0.114,0.137-0.135v-0.16H404.133z"/>
	<path d="M401.57,457.765c-0.295-0.249-0.274-0.249-0.886-0.296c0.135,0.157,0.206,0.296,0.318,0.43h0.591   C401.593,457.831,401.57,457.81,401.57,457.765"/>
	<path d="M401.751,460.532v0.454h0.407C402.022,460.848,401.888,460.689,401.751,460.532"/>
	<path d="M403.203,462.598c-0.044,0.089-0.089,0.179-0.135,0.293h0.294C403.294,462.776,403.271,462.687,403.203,462.598"/>
	<path d="M416.315,484.555c-0.044,0.047-0.091,0.114-0.134,0.159c0.09,0.113,0.227,0.205,0.318,0.319   c0.111-0.067,0.271-0.112,0.408-0.157C416.725,484.763,416.52,484.669,416.315,484.555"/>
	<path d="M418.924,485.895c-0.135-0.047-0.273-0.092-0.433-0.159c-0.27,0.182-0.587,0.365-0.861,0.591   c0.907,0.11,1.271,0.362,1.588-0.432H418.924z"/>
	<path d="M422.418,485.895c-0.272-0.047-0.5-0.092-0.75-0.159c-0.137,0.067-0.294,0.112-0.453,0.159   c0.112,0.022,0.225,0.092,0.315,0.137c0.137,0.137,0.295,0.295,0.409,0.432c0.205-0.092,0.386-0.228,0.612-0.295   C422.508,486.054,422.464,485.984,422.418,485.895"/>
	<path d="M423.71,488.188v-0.139c-1.156-0.092-1.678-0.067-2.472-0.568c-0.138-0.976,0-1.313-1-1.589   c0.229,1.067,0.546,2.249,0.432,2.904c0.183,0.022,0.295,0.067,0.455,0.135c0.112-0.341,0.272-0.701,0.408-1.019   c0.091,0.067,0.182,0.109,0.295,0.137c0.272,0.704,0.658,1.267,1.294,1.588c-0.229-0.34-0.478-0.659-0.726-0.998v-0.158   C422.849,488.367,423.258,488.298,423.71,488.188"/>
	<path d="M421.42,490.365c0.046,0.09,0.091,0.179,0.157,0.315c0.024-0.137,0.068-0.226,0.115-0.315H421.42z"/>
	<path d="M430.494,493.401c-0.045,0.546-0.159,0.23,0.455,0.433C430.79,493.697,430.63,493.561,430.494,493.401"/>
	<path d="M434.691,493.561c0.34,0.477,1.066,0.432,1.725,0.566c0.067-0.11,0.113-0.202,0.135-0.293   C435.938,493.744,435.328,493.654,434.691,493.561"/>
	<path d="M429.337,493.834c0.318,0.725,0.75,0.978,1.612,1.134C430.494,494.446,430.086,494.106,429.337,493.834"/>
	<path d="M492.225,0C383.126,0,289.5,66.176,249.322,160.642C286.369,94.647,364.75,15.449,492.042,15.562   c115.02,0.114,200.977,69.285,243.13,145.238C695.04,66.266,601.391,0,492.225,0"/>
	<path d="M743.861,343.923c-34.191,104.585-130.332,185.96-252.205,185.96c-129.266,0-216.109-80.285-251.023-183.737   c36.322,96.372,135.074,165.475,251.184,165.475C608.857,511.62,708.244,441.433,743.861,343.923"/>
</g>
</svg>